<mxfile host="app.diagrams.net" agent="Mozilla/5.0 (Windows NT 10.0; Win64; x64) AppleWebKit/537.36 (KHTML, like Gecko) Chrome/140.0.0.0 Safari/537.36 Edg/140.0.0.0" version="28.1.1">
  <diagram name="Instagram" id="AJ5oLLCQSCGvYqCshtrX">
    <mxGraphModel dx="1034" dy="540" grid="1" gridSize="10" guides="1" tooltips="1" connect="1" arrows="1" fold="1" page="1" pageScale="1" pageWidth="850" pageHeight="1100" math="0" shadow="0">
      <root>
        <mxCell id="0" />
        <mxCell id="1" parent="0" />
        <mxCell id="doaaQ5EWFnQELDvfQz1W-1" value="Actor" style="shape=umlActor;verticalLabelPosition=bottom;verticalAlign=top;html=1;outlineConnect=0;" vertex="1" parent="1">
          <mxGeometry x="90" y="100" width="30" height="60" as="geometry" />
        </mxCell>
        <mxCell id="doaaQ5EWFnQELDvfQz1W-2" value="&lt;h1 style=&quot;margin-top: 0px;&quot;&gt;Instagram&lt;/h1&gt;&lt;p&gt;&lt;b&gt;FR&lt;/b&gt;: &lt;b&gt;Social Media Platform&lt;/b&gt;&amp;nbsp;&lt;/p&gt;&lt;p&gt;&lt;/p&gt;&lt;ul&gt;&lt;li&gt;Account Mgmt.,&amp;nbsp;&lt;/li&gt;&lt;li&gt;Post Content,&amp;nbsp;&lt;/li&gt;&lt;li&gt;Messaging,&amp;nbsp;&lt;/li&gt;&lt;li&gt;Followers Info,&amp;nbsp;&lt;/li&gt;&lt;li&gt;Like/Comment functionality. etc.&lt;/li&gt;&lt;/ul&gt;&lt;p&gt;&lt;/p&gt;&lt;p&gt;&lt;b style=&quot;background-color: transparent; color: light-dark(rgb(0, 0, 0), rgb(255, 255, 255));&quot;&gt;NFR&lt;/b&gt;&lt;span style=&quot;background-color: transparent; color: light-dark(rgb(0, 0, 0), rgb(255, 255, 255));&quot;&gt;:&amp;nbsp;&lt;/span&gt;&lt;/p&gt;&lt;p&gt;&lt;/p&gt;&lt;ul&gt;&lt;li&gt;Scale to - No of users 100 M&lt;/li&gt;&lt;li&gt;Consistency - Weak is also fine&lt;/li&gt;&lt;li&gt;HA - it should be available when it should.&lt;/li&gt;&lt;li&gt;High Security&amp;nbsp;&lt;/li&gt;&lt;li&gt;Data Residency Requirements&lt;/li&gt;&lt;/ul&gt;&lt;p&gt;&lt;/p&gt;&lt;p&gt;&lt;br&gt;&lt;/p&gt;" style="text;html=1;whiteSpace=wrap;overflow=hidden;rounded=0;" vertex="1" parent="1">
          <mxGeometry x="740" y="20" width="200" height="260" as="geometry" />
        </mxCell>
        <mxCell id="doaaQ5EWFnQELDvfQz1W-3" value="Instagram Server" style="rounded=0;whiteSpace=wrap;html=1;" vertex="1" parent="1">
          <mxGeometry x="250" y="110" width="120" height="60" as="geometry" />
        </mxCell>
        <mxCell id="doaaQ5EWFnQELDvfQz1W-4" value="Database" style="shape=cylinder3;whiteSpace=wrap;html=1;boundedLbl=1;backgroundOutline=1;size=15;" vertex="1" parent="1">
          <mxGeometry x="480" y="80" width="60" height="80" as="geometry" />
        </mxCell>
      </root>
    </mxGraphModel>
  </diagram>
</mxfile>
